<svg width="21" height="21" viewBox="0 0 21 21" fill="none" xmlns="http://www.w3.org/2000/svg">
<rect width="21" height="21" fill="#F5F5F5"/>
<rect width="1512" height="982" transform="translate(-32 -884)" fill="white"/>
<path d="M10.5 20C15.7467 20 20 15.7467 20 10.5C20 5.25329 15.7467 1 10.5 1C5.25329 1 1 5.25329 1 10.5C1 15.7467 5.25329 20 10.5 20Z" stroke="#202125" stroke-width="1.3" stroke-linecap="round" stroke-linejoin="round"/>
<path d="M10.5 14C12.433 14 14 12.433 14 10.5C14 8.567 12.433 7 10.5 7C8.567 7 7 8.567 7 10.5C7 12.433 8.567 14 10.5 14Z" stroke="#202125" stroke-width="1.3" stroke-linecap="round" stroke-linejoin="round"/>
<path d="M4 4L8 8" stroke="#202125" stroke-width="1.3" stroke-linecap="round" stroke-linejoin="round"/>
<path d="M13 13L17 17" stroke="#202125" stroke-width="1.3" stroke-linecap="round" stroke-linejoin="round"/>
<path d="M13 8L17 4" stroke="#202125" stroke-width="1.3" stroke-linecap="round" stroke-linejoin="round"/>
<path d="M13 8L17 4" stroke="#202125" stroke-width="1.3" stroke-linecap="round" stroke-linejoin="round"/>
<path d="M4 17L8 13" stroke="#202125" stroke-width="1.3" stroke-linecap="round" stroke-linejoin="round"/>
</svg>
